<?xml version="1.0" encoding="UTF-8"?>
<svg id="Layer_2" xmlns="http://www.w3.org/2000/svg" viewBox="0 0 32.12 17.21">
  <defs>
    <style>
      .cls-1 {
        fill: #6c418d;
        stroke: #6c418d;
        stroke-miterlimit: 10;
        stroke-width: .25px;
      }
    </style>
  </defs>
  <g id="Layer_1-2" data-name="Layer_1">
    <g id="Layer_1-2">
      <g>
        <path class="cls-1" d="M22.11,10.08c1.84-.81,3.66-4.11,3.77-6.86h-6.4c.08,1.45-.37,2.95-.92,3.95-.26.47-.97.28-.97-.26V.85c0-.42-.47-.66-.81-.43-2.31,1.6-4.2,2.45-5.46,2.22v7.37c0,.18-.1.35-.26.45-.79.46-2.24,1.22-3.27,1.22-.2,0-.55,0-.87-.23-.39-.29-.52-.78-.52-1.1,0-.46,0-1.48,0-2.25h3.43V2.99h-3.43c0-.91,0-1.73,0-2.35,0-.44-.52-.68-.85-.39C3.8,1.75,2.01,2.83.12,2.99v8.05c0,1.6.66,3.11,1.77,4.26,1.66,1.74,3.48,1.79,4.43,1.77,1.45-.04,2.57-.17,3.19-.3.42-.09.8-.19,1.14-.29.33-.1.66.15.66.5v.1h6.28v-2.78c0-.47.59-.7.9-.35.77.87,1.62,2.21,1.58,3.13h6.49c-.1-2.49-1.95-5.61-4.45-7h0Z"/>
        <path class="cls-1" d="M29.77,12.63h0c1.23,0,2.22,1,2.22,2.22v2.22h-4.45v-2.22c0-1.23,1-2.22,2.22-2.22Z"/>
      </g>
    </g>
  </g>
</svg>