<?xml version="1.0" encoding="UTF-8"?>
<svg id="Layer_2" xmlns="http://www.w3.org/2000/svg" viewBox="0 0 2012.64 464.43">
  <defs>
    <style>
      .cls-1 {
        fill: #f5e9fe;
        stroke: #6c418d;
        stroke-miterlimit: 10;
        stroke-width: 5px;
      }
    </style>
  </defs>
  <g id="Layer_1-2" data-name="Layer_1">
    <g>
      <path class="cls-1" d="M148.06,9.84c9.02-7.72,22.94-1.28,22.91,10.59-.04,16.65-.09,38.72-.13,63.09h92.06v137.11h-92.1c.05,20.64.13,48.27.25,60.51.14,13.24,7.88,36.89,37.22,35.83,23.96-.86,54.62-10.57,54.62-10.57l15.15,140.23c-30.34,10.81-53.32,13.51-109.21,15.19-25.33.76-74.38-.8-118.92-47.43-29.65-31.06-47.42-71.56-47.42-114.51V83.52c50.49-4.38,98.57-33.48,145.56-73.68Z"/>
      <path class="cls-1" d="M667.51,444.34c0,4.35-3.52,7.88-7.87,7.87-40.87-.11-227.59-.56-247.65.02-64.56,1.86-117.86-16.77-123.62-105.15-8-122.94,210.95-140.7,210.96-140.69,9.79-1.78,14.29-17.79-7.36-16.56-39.67,2.24-122.27,20.71-160.48,42.62-5.19,2.98-11.69-.51-11.94-6.49l-4-97.53c-.11-2.79,1.24-5.42,3.58-6.93,21.7-13.98,84.27-42.02,172.42-41.53,124.58.67,179.3,46.78,175.81,147.56l.15,216.82ZM499.5,324.87c0-10.52-11.28-17.24-20.51-12.18-2.96,1.62-5.37,3.07-6.47,4.02-4.13,3.56-6.45,8.39-6.45,13.44s2.33,9.88,6.45,13.44c4.13,3.57,9.73,5.57,15.56,5.57h3.55c4.34,0,7.87-3.52,7.87-7.87v-16.42Z"/>
      <path class="cls-1" d="M895.26,452.23c7.25-76.11,7.96-166.76.78-212.88-1.48-9.55-7.51-13.98-13.53-13.95-6.01-.04-12.05,4.4-13.54,13.95-7.16,46.12-6.45,136.77.8,212.88h-173.81V138.3c36.61,8.43,86.43-16.95,146.7-59.12,9.2-6.44,21.86.14,21.86,11.38v21.46c9.11-10.28,45.79-31.99,81.34-32.25,42.03-.3,71.28,17.09,88.47,41.68,12.51-27.56,57.9-41.52,87.08-41.68,142.44-.87,137.49,133.77,137.49,178.45v193.99h-173.53c7.24-76.11,7.95-166.76.8-212.88-1.48-9.55-7.52-13.98-13.54-13.95-6.02-.04-12.04,4.4-13.54,13.95-7.16,46.12-6.45,136.77.8,212.88h-164.64.01Z"/>
      <path class="cls-1" d="M1665.39,79.94h172c-3.02,73.81-51.91,162.49-101.27,184.34,67.28,37.26,116.84,121.2,119.64,188.01h-174.39c1.09-24.77-21.78-60.86-42.42-84.12-8.44-9.51-24.2-3.4-24.2,9.32v74.8s-168.56,0-168.56,0V64.52c33.88,6.4,84.63-16.63,146.78-59.54,9.21-6.36,21.78.25,21.78,11.44v162.84c0,14.28,19.1,19.36,25.98,6.85,14.84-26.98,26.75-67.18,24.66-106.16Z"/>
      <path class="cls-1" d="M1950.39,333.56h0c32.98,0,59.75,26.77,59.75,59.75v59.75h-119.5v-59.75c0-32.98,26.77-59.75,59.75-59.75Z"/>
    </g>
  </g>
</svg>