<?xml version="1.0" encoding="UTF-8"?>
<svg id="Layer_2" xmlns="http://www.w3.org/2000/svg" viewBox="0 0 856.08 455.46">
  <g id="Layer_1-2" data-name="Layer_1">
    <g>
      <path d="M590.4,267.45c49.36-21.84,98.24-110.53,101.27-184.34h-172c2.09,38.99-9.81,79.18-24.66,106.16-6.88,12.51-25.98,7.42-25.98-6.85V19.59c0-11.19-12.57-17.79-21.78-11.44-62.15,42.91-112.9,65.94-146.78,59.54v197.97c0,4.94-2.61,9.51-6.88,12-21.31,12.44-60.11,32.66-87.8,32.84-5.32.03-14.88-.16-23.24-6.29-10.54-7.74-13.89-20.87-13.99-29.54-.12-12.25-.2-39.88-.25-60.51h92.1V77.05h-92.06c.04-24.38.09-46.46.13-63.11.03-11.86-13.88-18.29-22.9-10.58C98.58,43.57,50.5,72.66,0,77.05v216.35c0,42.95,17.77,83.44,47.42,114.51,44.54,46.64,93.59,48.19,118.92,47.43,39.07-1.17,68.96-4.61,85.8-8.15,11.15-2.34,21.37-4.99,30.57-7.71,8.87-2.62,17.75,4.09,17.75,13.35v2.63s168.56,0,168.56,0v-74.8c0-12.72,15.76-18.84,24.2-9.32,20.65,23.26,43.51,59.35,42.42,84.12h174.39c-2.8-66.82-52.36-150.75-119.64-188.01Z"/>
      <path d="M796.33,335.96h0c32.98,0,59.75,26.77,59.75,59.75v59.75h-119.5v-59.75c0-32.98,26.77-59.75,59.75-59.75Z"/>
    </g>
  </g>
</svg>